<svg xmlns="http://www.w3.org/2000/svg" version="1.1" xmlns:xlink="http://www.w3.org/1999/xlink" width="512" height="512" x="0" y="0" viewBox="0 0 512 512" style="enable-background:new 0 0 512 512" xml:space="preserve"><g><path d="M256 0A256 256 0 0 0 74.98 437.019 256 256 0 0 0 437.02 74.981 254.324 254.324 0 0 0 256 0zm158.393 414.392c-87.338 87.337-229.448 87.337-316.786 0s-87.336-229.446 0-316.784a224.257 224.257 0 0 1 316.786 0c87.336 87.338 87.336 229.446 0 316.784zm-48-246.162L278.627 256l87.77 87.77a16 16 0 1 1-22.626 22.63L256 278.627 168.229 366.4a16 16 0 1 1-22.629-22.63L233.373 256 145.6 168.23a16 16 0 1 1 22.629-22.63L256 233.373l87.771-87.77A16 16 0 1 1 366.4 168.23z" fill="#000000" opacity="1" data-original="#000000"/></g></svg>