<svg xmlns="http://www.w3.org/2000/svg" version="1.1" xmlns:xlink="http://www.w3.org/1999/xlink" width="512" height="512" x="0" y="0" viewBox="0 0 66 66" style="enable-background:new 0 0 512 512" xml:space="preserve"><g><path d="M65 58.7V42.6c0-4.5-3.7-8.2-8.2-8.2H48c-1.1 0-2 .9-2 2v14.3H3c-1.1 0-2 .9-2 2v7c0 .6.4 1 1 1h4.3c.5 2.3 2.5 4 4.9 4s4.4-1.7 4.9-4h2.2c.5 2.3 2.5 4 4.9 4s4.4-1.7 4.9-4h22.5c.5 2.3 2.5 4 4.9 4s4.4-1.7 4.9-4H63c1.1 0 2-.9 2-2zm-2-16.1V47h-7.7c-.6 0-1-.4-1-1v-9.6h2.5c3.4.1 6.2 2.8 6.2 6.2zM3 52.7h43v6H28.1c-.5-2.3-2.5-4-4.9-4s-4.4 1.7-4.9 4h-2.2c-.5-2.3-2.5-4-4.9-4s-4.4 1.7-4.9 4H3zm8.2 10c-1.7 0-3-1.3-3-3s1.3-3 3-3 3 1.3 3 3-1.4 3-3 3zm12 0c-1.7 0-3-1.3-3-3s1.3-3 3-3 3 1.3 3 3-1.4 3-3 3zm32.3 0c-1.6 0-3-1.3-3-3 0-1.6 1.3-3 3-3s3 1.3 3 3-1.3 3-3 3zm4.9-4c-.5-2.3-2.5-4-4.9-4s-4.4 1.7-4.9 4H48V36.5h4.3V46c0 1.7 1.3 3 3 3H63v9.7zM10 28.1c-.6 0-1 .4-1 1v13c0 .6.4 1 1 1s1-.4 1-1v-13c0-.5-.5-1-1-1zM18 28.1c-.6 0-1 .4-1 1v13c0 .6.4 1 1 1s1-.4 1-1v-13c0-.5-.5-1-1-1z" fill="#000000" opacity="1" data-original="#000000"/><path d="M26 28.1c-.6 0-1 .4-1 1v13c0 .6.4 1 1 1s1-.4 1-1v-13c0-.5-.5-1-1-1zM34 28.1c-.6 0-1 .4-1 1v13c0 .6.4 1 1 1s1-.4 1-1v-13c0-.5-.5-1-1-1zM10 5.9c-.6 0-1 .4-1 1v13c0 .6.4 1 1 1s1-.4 1-1v-13c0-.6-.5-1-1-1zM18 5.9c-.6 0-1 .4-1 1v13c0 .6.4 1 1 1s1-.4 1-1v-13c0-.6-.5-1-1-1zM26 5.9c-.6 0-1 .4-1 1v13c0 .6.4 1 1 1s1-.4 1-1v-13c0-.6-.5-1-1-1zM34 5.9c-.6 0-1 .4-1 1v13c0 .6.4 1 1 1s1-.4 1-1v-13c0-.6-.5-1-1-1z" fill="#000000" opacity="1" data-original="#000000"/><path d="M45 7.5c.6 0 1-.4 1-1s-.4-1-1-1h-2V2.3c0-.6-.4-1-1-1H2c-.6 0-1 .4-1 1v44.5c0 .6.4 1 1 1h40c.6 0 1-.4 1-1v-17h2c.6 0 1-.4 1-1s-.4-1-1-1h-2v-6.5h2c.6 0 1-.4 1-1s-.4-1-1-1h-2V7.5zM3 3.3h38v20.2H3zm38 42.4H3V25.5h38z" fill="#000000" opacity="1" data-original="#000000"/></g></svg>