<svg xmlns="http://www.w3.org/2000/svg" version="1.1" xmlns:xlink="http://www.w3.org/1999/xlink" width="512" height="512" x="0" y="0" viewBox="0 0 512 512" style="enable-background:new 0 0 512 512" xml:space="preserve"><g><path d="M370.233 329.971c2.682-1.069 5.479-1.885 8.376-2.354 30.269-4.902 51.129-33.55 46.52-63.716-2.093-10.399 1.286-24.664 11.298-34.8 21.494-21.764 21.478-57.162-.195-79.058-8.883-8.981-13.048-21.791-11.111-34.491 4.617-30.272-16.204-58.915-46.582-63.876-12.493-2.043-23.416-9.989-29.206-21.248-14.04-27.315-47.754-38.296-75.257-24.413-11.314 5.723-24.846 5.716-36.207-.024-27.424-13.837-61.154-2.891-75.21 24.431-5.789 11.263-16.712 19.209-29.362 21.275-30.222 4.938-51.044 33.581-46.395 64.068 1.906 12.486-2.258 25.296-11.298 34.425-21.517 21.748-21.533 57.146.187 79.14 8.868 8.978 13.024 21.78 11.095 34.421-4.633 30.311 16.236 58.966 46.511 63.868 2.89.467 5.683 1.282 8.361 2.348L69.253 451.002c-3.725 6.208 2.108 13.805 9.048 11.805l58.614-16.638 12.986 59.533c1.537 7.088 10.972 8.615 14.674 2.406l82.704-138.054a40.444 40.444 0 0 1 17.438 0l82.703 138.054c3.672 6.169 13.129 4.713 14.674-2.406l12.986-59.533 58.614 16.638c6.936 1.985 12.778-5.589 9.048-11.805zM161.23 482.563l-10.501-48.117c-.978-4.504-5.551-7.25-10.001-5.993l-47.372 13.446 61.791-103.151c2.991 2.951 5.571 6.341 7.526 10.151 11.696 22.775 37.036 34.151 61.068 29.309zm69.45-123.479c-19.58 9.915-43.738 2.066-53.77-17.49-8.111-15.806-23.432-26.936-40.964-29.776-21.642-3.5-36.55-23.982-33.222-45.828 2.664-17.435-3.141-35.342-15.767-48.133-15.368-15.56-15.361-40.863.18-56.564 12.423-12.559 18.252-30.479 15.548-48.157-3.298-21.638 11.587-42.117 33.347-45.672 17.486-2.856 32.76-13.97 40.863-29.725 10.021-19.496 34.116-27.383 53.809-17.443 15.829 8 34.746 7.993 50.637-.024 19.611-9.899 43.722-2.059 53.755 17.47 8.102 15.751 23.377 26.866 41.02 29.744 21.604 3.532 36.487 24.01 33.159 45.864-2.672 17.463 3.156 35.382 15.735 48.097 15.384 15.544 15.392 40.847-.203 56.637-21.456 21.734-15.315 49.591-15.517 48.079 3.305 21.669-11.61 42.152-33.245 45.657-17.541 2.836-32.847 13.966-40.964 29.773-10.024 19.552-34.136 27.393-53.793 17.481-15.838-7.994-34.755-7.994-50.608.01zm140.583 69.369c-4.478-1.247-9.026 1.501-10.001 5.993l-10.501 48.117-62.522-104.371c3.656.736 7.338 1.171 11.003 1.171 20.416 0 40.16-11.149 50.074-30.463 1.955-3.81 4.536-7.2 7.527-10.15l61.791 103.15z" fill="#000000" opacity="1" data-original="#000000"/><path d="M373.748 189.64c0-64.928-52.825-117.749-117.752-117.749S138.244 124.712 138.244 189.64c0 64.975 52.825 117.838 117.752 117.838s117.752-52.863 117.752-117.838zM255.996 291.477c-56.106 0-101.751-45.684-101.751-101.836 0-56.103 45.644-101.747 101.751-101.747s101.751 45.644 101.751 101.747c-.001 56.152-45.645 101.836-101.751 101.836z" fill="#000000" opacity="1" data-original="#000000"/><path d="m289.991 154.235-53.935 53.935L222 194.11a7.999 7.999 0 0 0-11.314 0c-3.125 3.121-3.125 8.189 0 11.314l19.712 19.716a8 8 0 0 0 11.314 0l59.591-59.591a7.999 7.999 0 0 0 0-11.314 7.995 7.995 0 0 0-11.312 0z" fill="#000000" opacity="1" data-original="#000000"/></g></svg>